<?xml version="1.0" encoding="UTF-8" standalone="no" ?>
<!DOCTYPE svg PUBLIC "-//W3C//DTD SVG 1.1//EN" "http://www.w3.org/Graphics/SVG/1.1/DTD/svg11.dtd">
<svg xmlns="http://www.w3.org/2000/svg" xmlns:xlink="http://www.w3.org/1999/xlink" version="1.1" width="266" height="69" viewBox="-142.7536231884058 0 385.5072463768116 100.00000000000001" xml:space="preserve">
<desc>Created with Fabric.js 5.3.0</desc>
<defs>
</defs>
<g transform="matrix(1 0 0 1 17.4697639315 37.1746855276)" id="E4hC9tZDNCYBEVx08C_e7"  >
<path style="stroke: rgb(0,0,0); stroke-width: 1; stroke-dasharray: none; stroke-linecap: round; stroke-dashoffset: 0; stroke-linejoin: round; stroke-miterlimit: 10; fill: none; fill-rule: nonzero; opacity: 1;"  transform=" translate(-17.4697639315, -37.1746855276)" d="M 18.831308149189052 26.630467840486475 Q 18.83030814918905 26.630467840486475 18.83030814918905 26.460399813275593 Q 18.83030814918905 26.290331786064712 18.660240121978163 26.290331786064712 Q 18.490172094767274 26.290331786064712 18.150036040345512 26.120263758853824 Q 17.80989998592375 25.950195731642935 17.469763931501973 25.950195731642935 Q 17.129627877080196 25.950195731642935 16.619423795447545 25.950195731642935 Q 16.109219713814895 25.950195731642935 15.939151686604006 25.780127704432054 Q 15.769083659393118 25.610059677221173 15.428947604971356 25.610059677221173 Q 15.088811550549593 25.610059677221173 13.728267332862515 25.610059677221173 Q 12.367723115175437 25.610059677221173 12.027587060753675 25.950195731642943 Q 11.687451006331912 26.290331786064712 11.347314951910136 26.63046784048648 Q 11.007178897488359 26.97060389490825 10.667042843066596 27.31073994933002 Q 10.326906788644834 27.65087600375179 10.156838761433946 27.82094403096267 Q 9.986770734223057 27.991012058173553 9.816702707012169 28.331148112595322 Q 9.64663467980128 28.67128416701709 9.476566652590407 29.35155627586063 Q 9.306498625379533 30.03182838470417 9.306498625379533 30.54203246633682 Q 9.306498625379533 31.05223654796947 9.306498625379533 32.07264471123478 Q 9.306498625379533 33.09305287450009 9.306498625379533 33.77332498334362 Q 9.306498625379533 34.45359709218715 9.306498625379533 35.30393722824158 Q 9.306498625379533 36.15427736429601 9.306498625379533 37.3447535547722 Q 9.306498625379533 38.53522974524839 9.646634679801295 39.38556988130281 Q 9.986770734223057 40.23591001735723 10.496974815855708 41.42638620783342 Q 11.007178897488359 42.61686239830961 11.347314951910136 43.8073385887858 Q 11.687451006331912 44.99781477926199 12.197655087964563 45.508018860894644 Q 12.707859169597214 46.0182229425273 13.388131278440753 46.698495051370834 Q 14.068403387284292 47.378767160214366 14.408539441706054 47.548835187425254 Q 14.748675496127817 47.71890321463614 15.599015632182244 47.888971241847024 Q 16.44935576823667 48.059039269057905 17.12962787708021 48.399175323479675 Q 17.80989998592375 48.739311377901444 18.490172094767274 48.739311377901444 Q 19.1704442036108 48.739311377901444 20.190852366876115 48.739311377901444 Q 21.21126053014143 48.739311377901444 22.061600666195844 47.71890321463614 Q 22.911940802250257 46.69849505137084 24.102416992726447 44.657678724840224 Q 25.292893183202636 42.61686239830961 25.462961210413525 41.42638620783342 Q 25.633029237624413 40.23591001735723 25.633029237624413 38.70529777245927 Q 25.633029237624413 37.17468552756131 25.633029237624413 35.98420933708512 Q 25.633029237624413 34.79373314660893 24.952757128780874 33.94339301055451 Q 24.272485019937335 33.09305287450009 23.252076856672034 31.73250865681301 Q 22.231668693406732 30.371964439125932 21.72146461177408 29.521624303071512 Q 21.21126053014143 28.67128416701709 20.360920394087003 27.310739949330014 L 19.509580258032575 25.949195731642934" stroke-linecap="round" />
</g>
<g transform="matrix(1 0 0 1 23.0820088295 42.9569984527)" id="s-DKnE6eHKFBxuRla10Wu"  >
<path style="stroke: rgb(0,0,0); stroke-width: 1; stroke-dasharray: none; stroke-linecap: round; stroke-dashoffset: 0; stroke-linejoin: round; stroke-miterlimit: 10; fill: none; fill-rule: nonzero; opacity: 1;"  transform=" translate(-23.0820088295, -42.9569984527)" d="M 19.169444203610798 38.87436579967015 Q 19.1704442036108 38.87536579967015 19.340512230821687 39.04543382688104 Q 19.510580258032576 39.215501854091926 19.850716312454352 39.895773962935465 Q 20.19085236687613 40.576046071779004 20.53098842129789 41.086250153411655 Q 20.871124475719654 41.596454235044305 21.21126053014143 42.106658316676956 Q 21.551396584563207 42.61686239830961 22.061600666195858 43.297134507153146 Q 22.57180474782851 43.977406615996685 23.252076856672048 44.657678724840224 Q 23.932348965515587 45.33795083368376 24.27248501993735 45.67808688810553 Q 24.61262107435911 46.0182229425273 25.122825155991762 46.35835899694907 Q 25.633029237624413 46.69849505137084 26.313301346467952 46.86856307858172 L 26.994573455311492 47.0396311057926" stroke-linecap="round" />
</g>
<g transform="matrix(1 0 0 1 32.7758863805 36.9015859216)" id="tg2PsVsFPvSXTVWzQOKtY"  >
<path style="stroke: rgb(0,0,0); stroke-width: 1; stroke-dasharray: none; stroke-linecap: round; stroke-dashoffset: 0; stroke-linejoin: round; stroke-miterlimit: 10; fill: none; fill-rule: nonzero; opacity: 1;"  transform=" translate(-32.7758863805, -36.9015859216)" d="M 29.37452583626387 30.03082838470417 Q 29.37452583626387 30.03182838470417 29.88472991789652 30.54203246633682 Q 30.394933999529172 31.05223654796947 30.394933999529172 31.73250865681301 Q 30.394933999529172 32.41278076565655 31.075206108372697 35.30393722824158 Q 31.755478217216222 38.19509369082661 32.26568229884887 41.25631818062253 Q 32.77588638048152 44.31754267041845 33.28609046211419 45.337950833683756 Q 33.79629454374685 46.358358996949065 34.306498625379504 47.208699133003485 Q 34.816702707012155 48.059039269057905 35.15683876143392 48.56924335069056 Q 35.49697481585568 49.07944743232322 35.66704284306657 47.54883518742526 Q 35.837110870277456 46.0182229425273 36.007178897488345 43.977406615996685 Q 36.17724692469923 41.93659028946607 36.17724692469923 38.3651617180375 Q 36.17724692469923 34.79373314660893 36.17724692469923 32.58284879286743 Q 36.17724692469923 30.371964439125932 35.837110870277456 28.67128416701709 Q 35.49697481585568 26.97060389490825 35.49697481585568 25.950195731642943 L 35.49697481585568 24.928787568377633" stroke-linecap="round" />
</g>
<g transform="matrix(1 0 0 1 48.0815088295 40.5541615254)" id="6qqtOWi8gS6Erq0kP_tdr"  >
<path style="stroke: rgb(0,0,0); stroke-width: 1; stroke-dasharray: none; stroke-linecap: round; stroke-dashoffset: 0; stroke-linejoin: round; stroke-miterlimit: 10; fill: none; fill-rule: nonzero; opacity: 1;"  transform=" translate(-48.0815088295, -40.5541615254)" d="M 48.762280938304656 34.11246103776539 Q 48.762280938304656 34.11346103776539 48.762280938304656 34.96380117381981 Q 48.762280938304656 35.81414130987423 48.762280938304656 37.17468552756131 Q 48.762280938304656 38.53522974524839 48.762280938304656 40.405978044568116 Q 48.762280938304656 42.276726343887844 48.762280938304656 43.807338588785804 Q 48.762280938304656 45.33795083368376 48.762280938304656 46.358358996949065 Q 48.762280938304656 47.378767160214366 48.252076856672005 44.827746752051105 Q 47.741872775039354 42.276726343887844 47.571804747828466 39.72570593572458 L 47.40073672061758 37.17368552756131" stroke-linecap="round" />
</g>
<g transform="matrix(1 0 0 1 51.3128013465 35.4393280625)" id="a3uiEsxWX1eFtYGA1fQQk"  >
<path style="stroke: rgb(0,0,0); stroke-width: 1; stroke-dasharray: none; stroke-linecap: round; stroke-dashoffset: 0; stroke-linejoin: round; stroke-miterlimit: 10; fill: none; fill-rule: nonzero; opacity: 1;"  transform=" translate(-51.3128013465, -35.4393280625)" d="M 47.40073672061758 30.03082838470417 Q 47.40173672061758 30.03182838470417 47.40173672061758 30.54203246633682 Q 47.40173672061758 31.05223654796947 48.42214488388289 33.77332498334362 Q 49.44255304714821 36.49441341871777 50.12282515599175 38.19509369082662 Q 50.80309726483529 39.895773962935465 51.82350542810059 41.256318180622536 Q 52.84391359136589 42.61686239830961 53.52418570020943 43.46720253436403 Q 54.20445780905297 44.31754267041845 54.54459386347473 44.99781477926199 Q 54.88472991789649 45.678086888105526 55.05479794510738 45.678086888105526 Q 55.22486597231827 45.678086888105526 55.22486597231827 45.848154915316414 Q 55.22486597231827 46.0182229425273 55.22486597231827 45.508018860894644 Q 55.22486597231827 44.99781477926199 55.22486597231827 42.956998452731376 Q 55.22486597231827 40.916182126200766 55.22486597231827 36.83454947313954 Q 55.22486597231827 32.75291682007831 54.88472991789651 30.371964439125932 Q 54.544593863474745 27.991012058173553 54.37452583626386 26.460399813275593 L 54.20345780905297 24.928787568377633" stroke-linecap="round" />
</g>
<g transform="matrix(1 0 0 1 63.5576993057 36.0854229785)" id="tUBBznt1d-MOO92Y9Y1pn"  >
<path style="stroke: rgb(0,0,0); stroke-width: 1; stroke-dasharray: none; stroke-linecap: round; stroke-dashoffset: 0; stroke-linejoin: round; stroke-miterlimit: 10; fill: none; fill-rule: nonzero; opacity: 1;"  transform=" translate(-63.5576993057, -36.0854229785)" d="M 62.36672311517541 26.629467840486473 Q 62.36772311517541 26.630467840486475 62.5377911423863 26.800535867697363 Q 62.707859169597185 26.97060389490825 63.04799522401895 27.991012058173553 Q 63.38813127844071 29.011420221438854 63.72826733286249 30.7121004935477 Q 64.06840338728426 32.41278076565655 64.40853944170603 34.28352906497628 Q 64.74867549612779 36.15427736429601 64.74867549612779 38.025025663615736 Q 64.74867549612779 39.895773962935465 64.74867549612779 41.766522262255194 Q 64.74867549612779 43.63727056157492 64.74867549612779 44.657678724840224 Q 64.74867549612779 45.678086888105526 64.74867549612779 45.337950833683756 L 64.74867549612779 44.99681477926199" stroke-linecap="round" />
</g>
<g transform="matrix(1 0 0 1 63.047995224 26.6304678405)" id="hKvK5wSTxl8U-CkkJtQEr"  >
<path style="stroke: rgb(0,0,0); stroke-width: 1; stroke-dasharray: none; stroke-linecap: round; stroke-dashoffset: 0; stroke-linejoin: round; stroke-miterlimit: 10; fill: none; fill-rule: nonzero; opacity: 1;"  transform=" translate(-63.047995224, -26.6304678405)" d="M 56.92454624442713 26.630467840486475 Q 56.925546244427125 26.630467840486475 57.77588638048154 26.630467840486475 Q 58.62622651653595 26.630467840486475 63.898335360073375 26.630467840486475 L 69.1714442036108 26.630467840486475" stroke-linecap="round" />
</g>
<g transform="matrix(1 0 0 1 79.3750258363 38.8753657997)" id="9dJoWctKlLsSEtJVwX6vu"  >
<path style="stroke: rgb(0,0,0); stroke-width: 1; stroke-dasharray: none; stroke-linecap: round; stroke-dashoffset: 0; stroke-linejoin: round; stroke-miterlimit: 10; fill: none; fill-rule: nonzero; opacity: 1;"  transform=" translate(-79.3750258363, -38.8753657997)" d="M 79.0343897818421 29.010420221438853 Q 79.0343897818421 29.011420221438854 79.20445780905297 29.181488248649742 Q 79.37452583626384 29.35155627586063 79.37452583626384 30.20189641191505 Q 79.37452583626384 31.05223654796947 79.37452583626384 31.90257668402389 Q 79.37452583626384 32.75291682007831 79.37452583626384 33.77332498334362 Q 79.37452583626384 34.79373314660893 78.6942537274203 35.81414130987424 Q 78.01398161857676 36.834549473139546 77.50377753694411 37.68488960919397 Q 76.99357345531146 38.53522974524839 76.14323331925705 39.555637908513695 Q 75.29289318320264 40.576046071779004 74.95275712878086 40.916182126200766 Q 74.61262107435908 41.25631818062253 74.61262107435908 42.106658316676956 Q 74.61262107435908 42.95699845273138 74.61262107435908 43.467202534364034 Q 74.61262107435908 43.977406615996685 74.61262107435908 44.487610697629336 Q 74.61262107435908 44.99781477926199 74.78268910156997 45.337950833683756 Q 74.95275712878086 45.678086888105526 75.80309726483529 46.18829096973818 Q 76.65343740088971 46.69849505137084 78.01398161857678 47.37876716021437 Q 79.37452583626384 48.059039269057905 80.56500202674003 48.22910729626879 Q 81.75547821721622 48.39917532347968 82.94595440769241 48.56924335069056 L 84.1374305981686 48.74031137790144" stroke-linecap="round" />
</g>
<g transform="matrix(1 0 0 1 87.8784271968 39.8962739629)" id="LGHfbdxXunhyp1pnVDs3c"  >
<path style="stroke: rgb(0,0,0); stroke-width: 1; stroke-dasharray: none; stroke-linecap: round; stroke-dashoffset: 0; stroke-linejoin: round; stroke-miterlimit: 10; fill: none; fill-rule: nonzero; opacity: 1;"  transform=" translate(-87.8784271968, -39.8962739629)" d="M 94.0013761763999 30.71210049354771 Q 94.0003761763999 30.71210049354771 93.66024012197815 30.71210049354771 Q 93.3201040675564 30.71210049354771 93.1500360403455 30.71210049354771 Q 92.9799680131346 30.71210049354771 91.61942379544752 31.73250865681301 Q 90.25887957776044 32.75291682007831 88.72826733286249 34.45359709218716 Q 87.19765508796453 36.15427736429601 86.00717889748834 37.51482158198308 Q 84.81670270701215 38.87536579967015 83.62622651653597 40.576046071779 Q 82.43575032605978 42.276726343887844 82.095614271638 42.95699845273138 Q 81.75547821721622 43.63727056157492 81.75547821721622 44.317542670418455 Q 81.75547821721622 44.99781477926199 81.75547821721622 45.337950833683756 Q 81.75547821721622 45.678086888105526 81.92554624442711 46.018222942527295 Q 82.095614271638 46.358358996949065 82.26568229884889 46.698495051370834 Q 82.43575032605978 47.038631105792604 82.77588638048154 47.208699133003485 Q 83.1160224349033 47.378767160214366 83.45615848932508 47.548835187425254 Q 83.79629454374685 47.71890321463614 83.96636257095773 47.888971241847024 Q 84.1364305981686 48.059039269057905 84.30649862537949 48.059039269057905 Q 84.47656665259038 48.059039269057905 84.64663467980127 48.22910729626879 Q 84.81670270701215 48.39917532347968 85.15683876143392 48.73931137790145 L 85.49797481585568 49.08044743232322" stroke-linecap="round" />
</g>
<g transform="matrix(1 0 0 1 86.5178829791 49.2490154595)" id="XDGwZ3IkccheQrw0DlIAt"  >
<path style="stroke: rgb(0,0,0); stroke-width: 1; stroke-dasharray: none; stroke-linecap: round; stroke-dashoffset: 0; stroke-linejoin: round; stroke-miterlimit: 10; fill: none; fill-rule: nonzero; opacity: 1;"  transform=" translate(-86.5178829791, -49.2490154595)" d="M 85.49697481585568 48.73831137790145 Q 85.49697481585568 48.739311377901444 85.49697481585568 48.90937940511233 Q 85.49697481585568 49.07944743232322 85.49697481585568 49.2495154595341 Q 85.49697481585568 49.41958348674498 85.83711087027746 49.58965151395587 Q 86.17724692469923 49.75971954116676 86.517382979121 49.75971954116676 Q 86.85751903354276 49.75971954116676 87.19765508796453 49.75971954116676 L 87.53879114238632 49.75971954116676" stroke-linecap="round" />
</g>
<g transform="matrix(1 0 0 1 78.354117673 30.0318283847)" id="cbFabPc1KqK1ba-nfA2sv"  >
<path style="stroke: rgb(0,0,0); stroke-width: 1; stroke-dasharray: none; stroke-linecap: round; stroke-dashoffset: 0; stroke-linejoin: round; stroke-miterlimit: 10; fill: none; fill-rule: nonzero; opacity: 1;"  transform=" translate(-78.354117673, -30.0318283847)" d="M 74.95175712878086 30.371964439125932 Q 74.95275712878086 30.371964439125932 74.95275712878086 30.031828384704163 Q 74.95275712878086 29.691692330282393 75.46296121041351 29.691692330282393 Q 75.97316529204616 29.691692330282393 76.82350542810059 29.691692330282393 Q 77.67384556415502 29.691692330282393 78.69425372742032 29.691692330282393 Q 79.71466189068562 29.691692330282393 80.73507005395092 29.691692330282393 L 81.75647821721623 29.691692330282393" stroke-linecap="round" />
</g>
<g transform="matrix(1 0 0 1 76.8235054281 48.3996753235)" id="kitwhnag086owl8kSLXs4"  >
<path style="stroke: rgb(0,0,0); stroke-width: 1; stroke-dasharray: none; stroke-linecap: round; stroke-dashoffset: 0; stroke-linejoin: round; stroke-miterlimit: 10; fill: none; fill-rule: nonzero; opacity: 1;"  transform=" translate(-76.8235054281, -48.3996753235)" d="M 71.89053263898492 47.71890321463614 Q 71.89153263898493 47.71890321463614 72.06160066619582 47.71890321463614 Q 72.2316686934067 47.71890321463614 72.57180474782848 47.71890321463614 Q 72.91194080225026 47.71890321463614 73.42214488388291 47.888971241847024 Q 73.93234896551556 48.059039269057905 74.44255304714821 48.059039269057905 Q 74.95275712878086 48.059039269057905 75.6330292376244 48.399175323479675 Q 76.31330134646794 48.739311377901444 76.82350542810059 48.739311377901444 Q 77.33370950973324 48.739311377901444 78.18404964578767 48.739311377901444 Q 79.0343897818421 48.739311377901444 79.71466189068563 48.739311377901444 Q 80.39493399952917 48.739311377901444 80.56500202674005 48.739311377901444 Q 80.73507005395092 48.739311377901444 81.0752061083727 48.739311377901444 Q 81.41534216279447 48.739311377901444 81.58541019000535 48.90937940511233 L 81.75647821721623 49.08044743232322" stroke-linecap="round" />
</g>
<g transform="matrix(1 0 0 1 41.279287741 37.3447535548)" id="Fbmnm1nOKmJbV1eY1HYXs"  >
<path style="stroke: rgb(0,0,0); stroke-width: 1; stroke-dasharray: none; stroke-linecap: round; stroke-dashoffset: 0; stroke-linejoin: round; stroke-miterlimit: 10; fill: none; fill-rule: nonzero; opacity: 1;"  transform=" translate(-41.279287741, -37.3447535548)" d="M 42.29969590429107 28.67028416701709 Q 42.29969590429107 28.67128416701709 42.12962787708018 28.67128416701709 Q 41.959559849869294 28.67128416701709 41.959559849869294 29.6916923302824 Q 41.959559849869294 30.71210049354771 41.959559849869294 31.56244062960213 Q 41.959559849869294 32.41278076565655 41.789491822658405 33.09305287450009 Q 41.61942379544752 33.77332498334363 41.44935576823663 34.62366511939805 Q 41.27928774102574 35.47400525545247 40.93915168660398 36.32434539150689 Q 40.599015632182216 37.17468552756131 40.599015632182216 38.02502566361573 Q 40.599015632182216 38.87536579967015 40.42894760497133 39.55563790851369 Q 40.25887957776044 40.23591001735723 40.25887957776044 40.916182126200766 Q 40.25887957776044 41.596454235044305 40.25887957776044 41.936590289466075 Q 40.25887957776044 42.276726343887844 40.25887957776044 42.786930425520495 Q 40.25887957776044 43.297134507153146 40.25887957776044 43.467202534364034 Q 40.25887957776044 43.63727056157492 40.25887957776044 43.977406615996685 Q 40.25887957776044 44.31754267041845 40.25887957776044 44.487610697629336 Q 40.25887957776044 44.657678724840224 40.25887957776044 44.827746752051105 Q 40.25887957776044 44.99781477926199 40.25887957776044 45.167882806472875 Q 40.25887957776044 45.33795083368376 40.42894760497133 45.508018860894644 Q 40.599015632182216 45.678086888105526 41.109219713814866 45.848154915316414 L 41.620423795447515 46.0192229425273" stroke-linecap="round" />
</g>
<g transform="matrix(1 0 0 1 42.4697639315 39.7257059357)" id="tcA3B-BKf3_gjkE24NzFj"  >
<path style="stroke: rgb(0,0,0); stroke-width: 1; stroke-dasharray: none; stroke-linecap: round; stroke-dashoffset: 0; stroke-linejoin: round; stroke-miterlimit: 10; fill: none; fill-rule: nonzero; opacity: 1;"  transform=" translate(-42.4697639315, -39.7257059357)" d="M 41.61842379544752 39.895773962935465 Q 41.61942379544752 39.895773962935465 41.789491822658405 39.72570593572458 Q 41.959559849869294 39.55563790851369 42.12962787708018 39.55563790851369 Q 42.29969590429107 39.55563790851369 42.80989998592372 39.55563790851369 L 43.32110406755637 39.55563790851369" stroke-linecap="round" />
</g>
<g transform="matrix(1 0 0 1 41.6194237954 43.8073385888)" id="0iOi-tgNCw2C_G3JKCz8h"  >
<path style="stroke: rgb(0,0,0); stroke-width: 1; stroke-dasharray: none; stroke-linecap: round; stroke-dashoffset: 0; stroke-linejoin: round; stroke-miterlimit: 10; fill: none; fill-rule: nonzero; opacity: 1;"  transform=" translate(-41.6194237954, -43.8073385888)" d="M 40.938151686603995 43.29613450715315 Q 40.93915168660399 43.297134507153146 41.109219713814866 43.467202534364034 Q 41.27928774102574 43.63727056157492 41.44935576823663 43.807338588785804 Q 41.61942379544752 43.977406615996685 41.959559849869294 44.147474643207566 L 42.30069590429107 44.318542670418445" stroke-linecap="round" />
</g>
<g transform="matrix(1 0 0 1 111.3473149519 84.7937331466)" id="r7lnY9Vob6_CU9MFWxhWf"  >
<path style="stroke: rgb(0,0,0); stroke-width: 1; stroke-dasharray: none; stroke-linecap: round; stroke-dashoffset: 0; stroke-linejoin: round; stroke-miterlimit: 10; fill: none; fill-rule: nonzero; opacity: 1;"  transform=" translate(-111.3473149519, -84.7937331466)" d="M 111.34631495191013 84.79373314660893 L 111.34831495191014 84.79373314660893" stroke-linecap="round" />
</g>
<g transform="matrix(5.0282577477 0 0 1.3043224985 55.7248659723 47.495862013)" id="1XIfOkjopU5euxVjDQTMw"  >
<path style="stroke: rgb(148,154,215); stroke-width: 0; stroke-dasharray: none; stroke-linecap: butt; stroke-dashoffset: 0; stroke-linejoin: miter; stroke-miterlimit: 4; fill: rgb(190,234,208); fill-rule: nonzero; opacity: 1;"  transform=" translate(0, 0)" d="M -26.45051 -26.45051 L 26.450519999999997 -26.45051 L 26.450519999999997 26.450519999999997 L -26.45051 26.450519999999997 z" stroke-linecap="round" />
</g>
<g transform="matrix(1 0 0 1 -47.7429993757 41.1888097805)" id="-wOqaREaNOgCnP63Ydw5C"  >
<path style="stroke: rgb(0,0,0); stroke-width: 1; stroke-dasharray: none; stroke-linecap: round; stroke-dashoffset: 0; stroke-linejoin: round; stroke-miterlimit: 10; fill: none; fill-rule: nonzero; opacity: 1;"  transform=" translate(47.7429993757, -41.1888097805)" d="M -28.966128067704634 29.692419485104143 Q -28.967128067704635 29.69141948510414 -30.549406548717293 29.058508092699082 Q -32.13168502972995 28.425596700294022 -34.87430106348522 27.898170539956467 Q -37.61691709724049 27.370744379618912 -39.30468081032066 27.265259147551404 Q -40.992444523400835 27.159773915483896 -42.57472300441349 27.159773915483896 Q -44.15700148542615 27.159773915483896 -45.73927996643881 27.159773915483896 Q -47.321558447451466 27.159773915483896 -49.00932216053163 27.159773915483896 Q -50.6970858736118 27.159773915483896 -52.38484958669197 27.159773915483896 Q -54.072613299772144 27.159773915483896 -55.549406548717286 27.476229611686428 Q -57.02619979766243 27.79268530788896 -58.39750781454007 28.32011146822651 Q -59.76881583141771 28.847537628564062 -60.92915338416033 29.480449020969125 Q -62.08949093690295 30.11336041337419 -63.56628418584809 31.695638894386846 Q -65.04307743479323 33.277917375399504 -65.35953313099577 34.43825492814212 Q -65.6759888271983 35.59859248088474 -66.09792975546834 37.1808709618974 Q -66.51987068373839 38.763149442910056 -66.51987068373839 39.29057560324761 Q -66.51987068373839 39.818001763585166 -66.51987068373839 41.40028024459782 Q -66.51987068373839 42.98255872561048 -66.41438545167088 43.40449965388052 Q -66.30890021960337 43.82644058215056 -66.09792975546834 44.56483720662313 Q -65.88695929133331 45.3032338310957 -65.35953313099577 46.2526009197033 Q -64.83210697065822 47.20196800831089 -64.41016604238817 48.256820328986 Q -63.98822511411814 49.31167264966111 -63.14434325757805 50.1555545062012 Q -62.300461401037964 50.999436362741285 -61.6675500086329 51.73783298721386 Q -61.03463861622784 52.47622961168643 -60.19075675968775 53.42559670029402 Q -59.346874903147665 54.37496378890162 -57.97556688627003 54.90238994923917 Q -56.604258869392396 55.42981610957673 -55.127465620447246 55.74627180577926 Q -53.6506723715021 56.06272750198179 -51.96290865842193 56.1682127340493 Q -50.275144945341765 56.273697966116806 -47.53252891158649 56.273697966116806 Q -44.78991287783121 56.273697966116806 -43.10214916475104 55.957242269914275 Q -41.41438545167087 55.64078657371174 -40.14856266686074 54.69141948510415 Q -38.882739882050615 53.742052396496554 -38.35531372171307 52.89817053995647 Q -37.82788756137552 52.05428868341638 -37.616917097240496 50.68298066653875 Q -37.40594663310547 49.31167264966111 -37.40594663310547 46.990997544175876 Q -37.40594663310547 44.67032243869064 -37.40594663310547 42.34964733320541 Q -37.40594663310547 40.02897222772018 -37.616917097240496 37.70829712223495 Q -37.82788756137552 35.387622016749724 -38.24982848964556 33.27791737539951 Q -38.6717694179156 31.1682127340493 -39.19919557825315 29.79690471717166 Q -39.72662173859071 28.425596700294022 -40.04307743479324 27.265259147551404 L -40.36053313099577 26.103921594808785" stroke-linecap="round" />
</g>
<g transform="matrix(1 0 0 1 -34.8743010635 46.8855123121)" id="fdiwoHD7GVmNWgYOPmY4P"  >
<path style="stroke: rgb(0,0,0); stroke-width: 1; stroke-dasharray: none; stroke-linecap: round; stroke-dashoffset: 0; stroke-linejoin: round; stroke-miterlimit: 10; fill: none; fill-rule: nonzero; opacity: 1;"  transform=" translate(34.8743010635, -46.8855123121)" d="M -45.21285380610126 38.55117897877504 Q -45.21185380610126 38.55217897877504 -45.00088334196624 39.60703129945014 Q -44.78991287783121 40.661883620125245 -43.629575325088595 42.455132565272926 Q -42.46923777234598 44.24838151042061 -41.20341498753585 46.04163045556828 Q -39.937592202725725 47.834879400715955 -39.19919557825315 48.67876125725604 Q -38.46079895378058 49.52264311379613 -37.82788756137552 50.05006927413368 Q -37.194976168970456 50.57749543447124 -35.823668152092814 51.52686252307883 Q -34.45236013521517 52.47622961168643 -29.494554228042176 53.84753762856406 L -24.53574832086918 55.219845645441694" stroke-linecap="round" />
</g>
<g transform="matrix(1 0 0 1 -19.1565014854 44.5643372066)" id="x42UrpmjEyyu1weZgzmWW"  >
<path style="stroke: rgb(0,0,0); stroke-width: 1; stroke-dasharray: none; stroke-linecap: round; stroke-dashoffset: 0; stroke-linejoin: round; stroke-miterlimit: 10; fill: none; fill-rule: nonzero; opacity: 1;"  transform=" translate(19.1565014854, -44.5643372066)" d="M -12.299461401037965 33.06594691126449 Q -12.300461401037964 33.06694691126449 -14.515651274455685 33.48888783953453 Q -16.730841147873406 33.91082876780457 -17.25826730821096 34.43825492814212 Q -17.785693468548516 34.96568108847968 -20.000883341966237 37.1808709618974 Q -22.216073215383958 39.39606083531512 -23.6928664643291 41.083824548395285 Q -25.169659713274243 42.77158826147545 -26.01354156981433 44.35386674248811 Q -26.857423426354416 45.936145223500766 -26.962908658421924 47.62390893658094 Q -27.068393890489432 49.31167264966111 -27.068393890489432 50.366524970336215 Q -27.068393890489432 51.42137729101132 -25.802571105679306 52.687200075821444 Q -24.53674832086918 53.95302286063157 -22.848984607789014 54.79690471717166 Q -21.161220894708848 55.64078657371174 -19.051516253358635 55.85175703784677 Q -16.941811612008422 56.06272750198179 -14.093710346185638 56.06272750198179 L -11.244609080362855 56.06272750198179" stroke-linecap="round" />
</g>
<g transform="matrix(1 0 0 1 -12.4059466331 45.6191895273)" id="V_3pa2anLL-4u6SkA6Sjs"  >
<path style="stroke: rgb(0,0,0); stroke-width: 1; stroke-dasharray: none; stroke-linecap: round; stroke-dashoffset: 0; stroke-linejoin: round; stroke-miterlimit: 10; fill: none; fill-rule: nonzero; opacity: 1;"  transform=" translate(12.4059466331, -45.6191895273)" d="M -20.10736857403374 44.88029290282567 Q -20.106368574033738 44.88129290282567 -19.57894241369619 45.1977485990282 Q -19.051516253358642 45.51420429523073 -16.097929755468343 45.93614522350077 Q -13.144343257578043 46.35808615177081 -8.924933974877625 46.35808615177081 L -4.704524692177206 46.35808615177081" stroke-linecap="round" />
</g>
<g transform="matrix(1 0 0 1 14.1768318479 48.1296365849)" id="rL8RbAedMZdp9kY9ERaup"  >
<path style="stroke: rgb(0,0,0); stroke-width: 1; stroke-dasharray: none; stroke-linecap: round; stroke-dashoffset: 0; stroke-linejoin: round; stroke-miterlimit: 10; fill: none; fill-rule: nonzero; opacity: 1;"  transform=" translate(-14.1768318479, -48.1296365849)" d="M 4.155234801493691 34.96468108847968 Q 4.155234801493691 34.96568108847968 4.155234801493691 36.2315038732898 Q 4.155234801493691 37.49732665809993 4.155234801493691 39.39606083531512 Q 4.155234801493691 41.29479501253031 4.155234801493691 43.50998488594803 Q 4.155234801493691 45.72517475936575 4.155234801493691 47.94036463278347 Q 4.155234801493691 50.15555450620119 5.104601890101279 52.89817053995647 Q 6.053968978708866 55.64078657371174 7.003336067316468 57.01209459058938 Q 7.95270315592407 58.38340260746701 10.062407797274275 59.75471062434465 Q 12.172112438624481 61.126018641222295 13.965361383772162 61.2315038732898 Q 15.758610328919843 61.33698910535731 18.290255898540096 61.02053340915478 Q 20.82190146816035 60.70407771295225 22.50966518124052 58.69985830366955 L 24.198428894320696 56.694638894386856" stroke-linecap="round" />
</g>
<g transform="matrix(1 0 0 1 40.864095561 47.2626566303)" id="z2vti5Y3MtB26sD5B6JRE"  >
<path style="stroke: rgb(0,0,0); stroke-width: 1; stroke-dasharray: none; stroke-linecap: round; stroke-dashoffset: 0; stroke-linejoin: round; stroke-miterlimit: 10; fill: none; fill-rule: nonzero; opacity: 1;"  transform=" translate(-40.864095561, -47.2626566303)" d="M 25.04031075086076 43.403499653880516 Q 25.04131075086076 43.404499653880514 27.361985856345996 46.674541847973344 Q 29.682660961831232 49.944584042066175 31.68688037111393 53.42559670029402 Q 33.69109978039663 56.90660935852187 34.21852594073418 57.64500598299444 Q 34.74595210107174 58.38340260746701 34.851437333139245 58.594373071602035 Q 34.95692256520675 58.80534353573706 34.95692256520675 58.06694691126449 Q 34.95692256520675 57.328550286791916 34.95692256520675 55.64078657371174 Q 34.95692256520675 53.95302286063157 34.95692256520675 53.003655772023976 Q 34.95692256520675 52.05428868341638 34.95692256520675 51.52686252307883 Q 34.95692256520675 50.999436362741285 34.95692256520675 50.682980666538754 Q 34.95692256520675 50.36652497033622 34.95692256520675 50.05006927413368 Q 34.95692256520675 49.733613577931145 34.95692256520675 49.41715788172861 Q 34.95692256520675 49.10070218552608 34.95692256520675 48.36230556105351 Q 34.95692256520675 47.62390893658094 34.95692256520675 47.30745324037841 Q 34.95692256520675 46.990997544175876 35.16789302934178 46.04163045556828 Q 35.378863493476814 45.09226336696069 35.58983395761183 44.459351974555624 Q 35.80080442174685 43.82644058215056 36.117260117949385 43.1935291897455 Q 36.433715814151924 42.560617797340434 37.06662720655699 41.50576547666533 Q 37.69953859896205 40.45091315599023 38.12147952723208 39.60703129945014 Q 38.543420455502115 38.763149442910056 39.07084661583967 38.13023805050499 Q 39.598272776177225 37.49732665809993 40.02021370444727 36.969900497762374 Q 40.44215463271732 36.44247433742482 40.969580793054874 36.12601864122229 Q 41.49700695339243 35.809562945019756 41.81346264959495 35.809562945019756 Q 42.12991834579748 35.809562945019756 43.18477066647259 36.864415265694866 Q 44.2396229871477 37.919267586369976 45.61093100402533 40.239942691855205 Q 46.982239020902966 42.560617797340434 47.826120877443046 44.14289627835309 Q 48.670002733983125 45.72517475936575 49.724855054658235 47.72939416864845 Q 50.779707375333345 49.733613577931145 51.20164830360339 50.366524970336215 Q 51.62358923187344 50.999436362741285 52.2565006242785 52.898170539956475 Q 52.889412016683565 54.796904717171664 53.41683817702112 55.957242269914275 Q 53.944264337358675 57.117579822656886 54.36620526562871 57.53952075092693 Q 54.78814619389874 57.96146167919698 54.99911665803377 58.06694691126449 Q 55.2100871221688 58.172432143331996 55.94848374664137 57.11757982265689 L 56.68788037111394 56.06172750198179" stroke-linecap="round" />
</g>
<g transform="matrix(1 0 0 1 68.7116968268 44.8812929028)" id="ylb3vRKM_Yq7Xa84PpLTv"  >
<path style="stroke: rgb(0,0,0); stroke-width: 1; stroke-dasharray: none; stroke-linecap: round; stroke-dashoffset: 0; stroke-linejoin: round; stroke-miterlimit: 10; fill: none; fill-rule: nonzero; opacity: 1;"  transform=" translate(-68.7116968268, -44.8812929028)" d="M 64.91372847237974 35.386622016749726 Q 64.91472847237975 35.387622016749724 65.02021370444727 35.387622016749724 Q 65.1256989365148 35.387622016749724 65.54763986478483 36.547959569492335 Q 65.96958079305486 37.708297122234946 66.91894788166246 39.607031299450135 Q 67.86831497027006 41.505765476665324 68.71219682681014 43.404499653880514 Q 69.55607868335022 45.3032338310957 70.50544577195782 47.62390893658094 Q 71.45481286056543 49.944584042066175 71.87675378883546 51.10492159480879 Q 72.29869471710549 52.26525914755141 72.40417994917301 52.898170539956475 Q 72.50966518124054 53.53108193236154 72.50966518124054 53.95302286063158 L 72.50966518124054 54.375963788901615" stroke-linecap="round" />
</g>
<g transform="matrix(1 0 0 1 71.0328719323 30.0335575396)" id="r8SVSVsrwv8ji_F5fL6cI"  >
<path style="stroke: rgb(0,0,0); stroke-width: 1; stroke-dasharray: none; stroke-linecap: round; stroke-dashoffset: 0; stroke-linejoin: round; stroke-miterlimit: 10; fill: none; fill-rule: nonzero; opacity: 1;"  transform=" translate(-71.0328719323, -30.0335575396)" d="M 54.36520526562871 29.479449020969124 Q 54.36620526562871 29.480449020969125 54.89363142596626 29.374963788901617 Q 55.42105758630382 29.26947855683411 61.3282305820844 29.796904717171657 Q 67.23540357786499 30.324330877509205 70.3999605398903 30.324330877509205 Q 73.56451750191562 30.324330877509205 76.72907446394093 30.324330877509205 Q 79.89363142596625 30.324330877509205 82.4252769955865 30.324330877509205 Q 84.95692256520675 30.324330877509205 86.3282305820844 30.535301341644228 L 87.70053859896205 30.747271805779253" stroke-linecap="round" />
</g>
<g transform="matrix(1 0 0 1 92.7628297382 44.8812929028)" id="wKCbEJWS9ue1XTf9PJWxE"  >
<path style="stroke: rgb(0,0,0); stroke-width: 1; stroke-dasharray: none; stroke-linecap: round; stroke-dashoffset: 0; stroke-linejoin: round; stroke-miterlimit: 10; fill: none; fill-rule: nonzero; opacity: 1;"  transform=" translate(-92.7628297382, -44.8812929028)" d="M 90.65212509685233 35.80856294501976 Q 90.65312509685234 35.809562945019756 91.2860364892574 40.76736885219275 Q 91.91894788166246 45.72517475936575 92.44637404200002 47.51842370451343 Q 92.97380020233757 49.31167264966111 93.39574113060762 50.47201020240373 Q 93.81768205887766 51.63234775514635 94.3451082192152 52.79268530788896 L 94.87353437955275 53.95402286063157" stroke-linecap="round" />
</g>
<g transform="matrix(1 0 0 1 92.1299183458 29.9023899492)" id="d2_WsjEfAia3WOw7prkg6"  >
<path style="stroke: rgb(0,0,0); stroke-width: 1; stroke-dasharray: none; stroke-linecap: round; stroke-dashoffset: 0; stroke-linejoin: round; stroke-miterlimit: 10; fill: none; fill-rule: nonzero; opacity: 1;"  transform=" translate(-92.1299183458, -29.9023899492)" d="M 88.12047952723208 28.635567164429037 Q 88.12147952723208 28.63656716442904 88.3324499913671 28.953022860631574 Q 88.54342045550212 29.26947855683411 89.07084661583967 29.480449020969125 Q 89.59827277617723 29.69141948510414 90.12569893651478 29.902389949239165 Q 90.65312509685234 30.11336041337419 92.02443311372997 30.32433087750921 Q 93.3957411306076 30.535301341644235 94.76704914748524 30.851757037846767 L 96.13935716436288 31.1692127340493" stroke-linecap="round" />
</g>
<g transform="matrix(1 0 0 1 99.3034141264 52.5812148438)" id="uPGzg9jbAsp2oF32vD8ST"  >
<path style="stroke: rgb(0,0,0); stroke-width: 1; stroke-dasharray: none; stroke-linecap: round; stroke-dashoffset: 0; stroke-linejoin: round; stroke-miterlimit: 10; fill: none; fill-rule: nonzero; opacity: 1;"  transform=" translate(-99.3034141264, -52.5812148438)" d="M 87.69953859896205 50.99843636274129 Q 87.69953859896205 50.999436362741285 87.69953859896205 51.10492159480879 Q 87.69953859896205 51.2104068268763 87.69953859896205 51.421377291011325 Q 87.69953859896205 51.63234775514635 88.01599429516457 51.94880345134888 Q 88.3324499913671 52.26525914755141 89.17633184790719 52.58171484375394 Q 90.02021370444729 52.898170539956475 91.28603648925741 53.214626236159006 Q 92.55185927406754 53.53108193236154 95.08350484368779 53.742052396496554 Q 97.61515041330804 53.95302286063157 100.56873691119833 54.058508092699086 Q 103.52232340908861 54.1639933247666 107.21430653145148 54.1639933247666 L 110.90728965381436 54.1639933247666" stroke-linecap="round" />
</g>
<g transform="matrix(1 0 0 1 124.0293554543 43.1935291897)" id="gT_l5IdVhs4591OG-vSTv"  >
<path style="stroke: rgb(0,0,0); stroke-width: 1; stroke-dasharray: none; stroke-linecap: round; stroke-dashoffset: 0; stroke-linejoin: round; stroke-miterlimit: 10; fill: none; fill-rule: nonzero; opacity: 1;"  transform=" translate(-124.0293554543, -43.1935291897)" d="M 118.71319682681016 29.268478556834108 Q 118.71219682681016 29.26947855683411 116.07506602512238 31.273697966116806 Q 113.43793522343461 33.277917375399504 110.27337826140929 36.75893003362735 Q 107.10882129938398 40.2399426918552 105.84299851457385 42.877073493542966 Q 104.57717572976372 45.51420429523073 103.94426433735866 46.990997544175876 Q 103.3113529449536 48.46779079312102 103.52232340908863 49.73361357793115 Q 103.73329387322366 50.999436362741285 104.99911665803378 51.94880345134888 Q 106.26493944284391 52.898170539956475 125.46325167913083 55.00787518130668 L 144.66256391541776 57.11857982265688" stroke-linecap="round" />
</g>
</svg>